<svg xmlns="http://www.w3.org/2000/svg" version="1.1" xmlns:xlink="http://www.w3.org/1999/xlink" xmlns:svgjs="http://svgjs.dev/svgjs" width="512" height="512"><svg width="512" height="512" viewBox="0 0 512 512" fill="none" xmlns="http://www.w3.org/2000/svg">
<path d="M0 256C0 158.687 20.4522 87.04 53.76 53.76C87.0678 20.48 158.753 0 256 0C353.355 0 424.96 20.4172 458.24 53.76C491.52 87.1028 512 158.795 512 256C512 353.323 491.556 424.96 458.24 458.24C424.924 491.52 353.237 512 256 512C158.796 512 87.1038 491.52 53.76 458.24C20.4162 424.96 0 353.356 0 256Z" fill="black"></path>
<path d="M263.333 131.4V325.533Z" fill="white"></path>
<path fill-rule="evenodd" clip-rule="evenodd" d="M263.333 121C269.077 121 273.733 125.656 273.733 131.4V325.533C273.733 331.277 269.077 335.933 263.333 335.933C257.589 335.933 252.933 331.277 252.933 325.533V131.4C252.933 125.656 257.589 121 263.333 121Z" fill="white"></path>
<path d="M263.333 325.533C263.333 356.166 238.499 381 207.867 381C177.233 381 152.4 356.166 152.4 325.533C152.4 294.9 177.233 270.067 207.867 270.067C238.499 270.067 263.333 294.9 263.333 325.533Z" fill="white"></path>
<path fill-rule="evenodd" clip-rule="evenodd" d="M207.867 280.467C182.977 280.467 162.8 300.644 162.8 325.533C162.8 350.423 182.977 370.6 207.867 370.6C232.756 370.6 252.933 350.422 252.933 325.533C252.933 300.644 232.756 280.467 207.867 280.467ZM142 325.533C142 289.157 171.489 259.667 207.867 259.667C244.243 259.667 273.733 289.157 273.733 325.533C273.733 361.91 244.243 391.4 207.867 391.4C171.489 391.4 142 361.91 142 325.533Z" fill="white"></path>
<path d="M263.333 131.4C316.942 131.4 360.4 174.858 360.4 228.467C339.6 207.667 284.904 176.698 263.333 206.896" fill="white"></path>
<path fill-rule="evenodd" clip-rule="evenodd" d="M252.933 131.4C252.933 125.656 257.589 121 263.333 121C322.685 121 370.8 169.115 370.8 228.467C370.8 232.673 368.266 236.465 364.38 238.075C360.493 239.685 356.02 238.795 353.046 235.821C343.668 226.443 326.119 214.397 308.753 208.385C290.672 202.125 278.249 203.906 271.796 212.941C268.457 217.615 261.962 218.698 257.288 215.359C252.614 212.02 251.532 205.525 254.87 200.851C269.988 179.688 295.699 181.854 315.558 188.729C326.413 192.488 337.165 198.115 346.577 204.271C336.105 168.181 302.8 141.8 263.333 141.8C257.589 141.8 252.933 137.144 252.933 131.4Z" fill="white"></path>
</svg><style>@media (prefers-color-scheme: light) { :root { filter: none; } }
@media (prefers-color-scheme: dark) { :root { filter: none; } }
</style></svg>